<svg xmlns="http://www.w3.org/2000/svg" width="211.545" height="76.205" viewBox="0 0 211.545 76.205"><defs><style>.a{fill:#e58d10;}.b{fill:#b2258d;}.c{fill:none;}.d{fill:#d65d00;}</style></defs><g transform="translate(-469.381 -207.999)"><path class="a" d="M563.039,243.066,563,242.7c0,.008-.05-.358-.05-.358s-.066-.359-.066-.359c0-.017-.082-.361-.082-.361a9.868,9.868,0,0,0-2.033-3.956A13.311,13.311,0,0,0,557.4,234.8a17.7,17.7,0,0,0-4.173-1.836c-.4-.121-.816-.227-1.232-.324a6.911,6.911,0,0,0-1.63-2.231l-.048-.044a9.541,9.541,0,0,0-2.454-1.6,13.715,13.715,0,0,0-3.086-.979,18.477,18.477,0,0,0-3.828-.327,22.192,22.192,0,0,0-7.475,1.444,18.969,18.969,0,0,0-2.624,1.256,10.239,10.239,0,0,0-2.145-.667,14.761,14.761,0,0,0-3.29-.214,19.052,19.052,0,0,0-3.452.474,21.1,21.1,0,0,0-5.855,2.3,18.284,18.284,0,0,0-2.089,1.414,14.973,14.973,0,0,0-1.767,1.619,11.832,11.832,0,0,0-1.391,1.815l-.019.032.016-.025-.183.333c-.26.107-.519.217-.776.334a22.794,22.794,0,0,0-3.222,1.8,21.365,21.365,0,0,0-2.866,2.29,17.509,17.509,0,0,0-2.357,2.752l-.006.01,0,0-.176.268-.157.244-.181.3-.146.257a10.854,10.854,0,0,0-1.271,3.472,7.473,7.473,0,0,0,.186,3.47,6.533,6.533,0,0,0,1.879,2.957l.011.01a7.511,7.511,0,0,0,1.527,1.063l-.182.3a17.514,17.514,0,0,0-1.691,3.936,14.094,14.094,0,0,0-.563,4.119,11.242,11.242,0,0,0,.812,4.064,10.09,10.09,0,0,0,2.452,3.578l.136.124a11.326,11.326,0,0,0,4.408,2.453,15.162,15.162,0,0,0,5.622.546,20.083,20.083,0,0,0,5.99-1.462c.7-.284,1.371-.617,2.037-.97.332.24.668.477,1.023.695a18.371,18.371,0,0,0,5.937,2.315,20.711,20.711,0,0,0,6.816.24,21.157,21.157,0,0,0,6.843-2.078,20.278,20.278,0,0,0,4.221-2.828,18.251,18.251,0,0,0,3.137-3.547,16.4,16.4,0,0,0,1.961-3.968,14.847,14.847,0,0,0,.755-4.111l-.03-1.583-.2-1.548s-.237-.956-.335-1.345a20.325,20.325,0,0,0,3.577-1.427,16.186,16.186,0,0,0,4.037-2.985,11.73,11.73,0,0,0,2.5-3.761A9.145,9.145,0,0,0,563.039,243.066Zm-5.528,2.634a7.836,7.836,0,0,1-1.808,2.462,12.052,12.052,0,0,1-3.121,2.093,16.223,16.223,0,0,1-4.173,1.3l-3.142.538,1.341,2.685s.478,1.129.478,1.129l.32,1.162c0,.005.166,1.214.166,1.214l.006,1.237a10.319,10.319,0,0,1-.576,2.794,11.61,11.61,0,0,1-1.418,2.75,13.37,13.37,0,0,1-2.27,2.506,15.089,15.089,0,0,1-3.078,2.033,15.99,15.99,0,0,1-5.251,1.556,15.366,15.366,0,0,1-5.181-.257,13.42,13.42,0,0,1-3.456-1.286l1.513-7L523.5,266.41c-.173.152-.356.291-.534.436-.2-.246-.388-.5-.561-.76l-2.542-3.862-1.528,7.064.147.2a15.1,15.1,0,0,1-3.862,1.007,10.982,10.982,0,0,1-4.094-.244,7.264,7.264,0,0,1-3.037-1.591,6.043,6.043,0,0,1-1.505-2.09,6.977,6.977,0,0,1-.556-2.519,9.3,9.3,0,0,1,.334-2.775,12.26,12.26,0,0,1,1.177-2.842l.307-.517.332-.512s.353-.5.353-.5.387-.5.387-.5l2.179-2.729-3.25-.578a5.107,5.107,0,0,1-2.166-.879,3.006,3.006,0,0,1-1.025-1.325,3.57,3.57,0,0,1-.174-1.761,6.5,6.5,0,0,1,.779-2.234c0-.012.112-.2.112-.2s.091-.153.091-.153l.122-.2.127-.192a12.217,12.217,0,0,1,1.778-2.079,15.873,15.873,0,0,1,2.3-1.8c.367-.239.746-.461,1.13-.672l.317.1,3.391,1.41-.058-2.788s.008-.1.015-.2c.206-.055.412-.107.618-.152l5.462-1.179-4.323-1.8a10.779,10.779,0,0,1,.92-.827,13.486,13.486,0,0,1,1.528-1.041,15.079,15.079,0,0,1,1.778-.889,15.847,15.847,0,0,1,2.768-.881,13.679,13.679,0,0,1,2.661-.325,9.488,9.488,0,0,1,2.327.223,5.04,5.04,0,0,1,1.7.706l1.265.871,1.406-.975a13.193,13.193,0,0,1,2.53-1.369,16.443,16.443,0,0,1,2.895-.886,16.252,16.252,0,0,1,3.035-.349,13.191,13.191,0,0,1,2.937.249,9.136,9.136,0,0,1,2.07.673,5.972,5.972,0,0,1,1.037.624l-6.763,3.028,7.448.269c.157.005.312.02.468.03l-.029.083c0,.008-.124.29-.124.29l-2,4.269,6.368-2.845.271-.876a12.687,12.687,0,0,1,2.034.952,8.98,8.98,0,0,1,2.379,1.982,5.793,5.793,0,0,1,1.231,2.441l.04.2.034.211c0,.031.021.188.021.188l.016.218A5.273,5.273,0,0,1,557.511,245.7Z" transform="translate(117.86 -19.461)"/><path class="a" d="M243.934,307.432q-.475,2.7-.83,4.573a19.234,19.234,0,0,0-.355,3.578q0,.664.024,1.066a7.783,7.783,0,0,0,.118.924,7.278,7.278,0,0,1-.782.071q-.5.023-.829.024-.284,0-.782-.024a5.543,5.543,0,0,1-.734-.071,4.2,4.2,0,0,1-.119-.758q-.023-.379-.024-1.043,0-.331.047-.877t.143-1.161q.095-.616.213-1.232t.261-1.137a11.755,11.755,0,0,1-1.256,2.156,13.068,13.068,0,0,1-2.014,2.2,11.129,11.129,0,0,1-2.654,1.73,7.515,7.515,0,0,1-3.222.687,5.592,5.592,0,0,1-4.739-2.109,9.525,9.525,0,0,1-1.611-5.9,20.153,20.153,0,0,1,1.018-6.326,17.153,17.153,0,0,1,3.01-5.544,14.733,14.733,0,0,1,11.8-5.426q.615,0,1.374.071t1.327.166q.473-2.7.829-4.739a21.968,21.968,0,0,0,.355-3.744v-1q0-.331-.047-.853a7.536,7.536,0,0,1,.829-.071c.364-.016.656-.024.877-.024h.758a3.954,3.954,0,0,1,.711.048q.047.522.047.924v.782q0,.569-.071,1.422t-.214,1.777q-.142.924-.284,1.872t-.285,1.706Zm-1-11.515a13.374,13.374,0,0,0-3.27-.332,9.886,9.886,0,0,0-4.525,1.066,11.394,11.394,0,0,0-3.673,2.962,14.456,14.456,0,0,0-2.464,4.454,16.573,16.573,0,0,0-.9,5.544,7.766,7.766,0,0,0,.995,4.242,3.233,3.233,0,0,0,2.891,1.54,5.65,5.65,0,0,0,3.341-1.137,11.787,11.787,0,0,0,2.867-3.033,20.852,20.852,0,0,0,2.2-4.36,32.358,32.358,0,0,0,1.445-5.118Z" transform="translate(244.592 -44.93)"/><path class="a" d="M270.345,316.828A7.986,7.986,0,0,0,272,322.183q1.657,1.943,5.26,1.942a13.433,13.433,0,0,0,1.9-.142q1-.141,1.9-.355t1.706-.45q.805-.237,1.374-.426a4.951,4.951,0,0,1,.355,1.256,8.328,8.328,0,0,1,.118,1.3,14.726,14.726,0,0,1-1.635.569q-.973.284-2.062.5t-2.227.355a17.237,17.237,0,0,1-2.132.142,11.84,11.84,0,0,1-4.526-.758,7.637,7.637,0,0,1-2.938-2.061,7.753,7.753,0,0,1-1.587-3.033,13.837,13.837,0,0,1-.474-3.673,17.6,17.6,0,0,1,3.767-10.757,14.486,14.486,0,0,1,4.265-3.625,10.985,10.985,0,0,1,5.473-1.4,6.518,6.518,0,0,1,4.715,1.541,4.993,4.993,0,0,1,1.587,3.719,6.108,6.108,0,0,1-.995,3.507,8.264,8.264,0,0,1-2.749,2.488,17.618,17.618,0,0,1-4.146,1.682A45.123,45.123,0,0,1,273.8,315.6l-3.46.569Zm3.081-3.744a25.493,25.493,0,0,0,7.464-2.132,4.222,4.222,0,0,0,2.677-3.838,2.6,2.6,0,0,0-.9-2.061,3.942,3.942,0,0,0-2.653-.782,6.653,6.653,0,0,0-3.176.782,10.411,10.411,0,0,0-2.677,2.061,13.114,13.114,0,0,0-2.085,2.962,15.179,15.179,0,0,0-1.3,3.436Z" transform="translate(225.099 -53.662)"/><path class="b" d="M325.27,283.745q1.468-.236,3.269-.4t3.839-.166a29.383,29.383,0,0,1,4.668.355,11.818,11.818,0,0,1,3.838,1.256,6.928,6.928,0,0,1,2.583,2.417,7.031,7.031,0,0,1,.947,3.791,8.041,8.041,0,0,1-.592,3.033,10.127,10.127,0,0,1-1.54,2.63,9.521,9.521,0,0,1-2.132,1.943,6.7,6.7,0,0,1-2.369,1.019,6.7,6.7,0,0,1,4.312,2.535,7.339,7.339,0,0,1,1.516,4.526,10.946,10.946,0,0,1-1.256,5.45,9.935,9.935,0,0,1-3.459,3.6,16.1,16.1,0,0,1-5.236,2.014,31.709,31.709,0,0,1-6.54.64q-1.658,0-3.459-.118t-4.359-.45Zm1.8,28.859q.569.094,1.09.142t1.042.047a13.7,13.7,0,0,0,2.441-.237,6.91,6.91,0,0,0,2.416-.924,5.6,5.6,0,0,0,1.849-1.9,6.005,6.005,0,0,0,.734-3.152,3.212,3.212,0,0,0-1.4-2.985,7.3,7.3,0,0,0-3.814-.853h-2.607Zm4.834-15.069a6.428,6.428,0,0,0,2.085-.355,5.154,5.154,0,0,0,1.825-1.066,5.4,5.4,0,0,0,1.279-1.824,6.411,6.411,0,0,0,.5-2.63,3.107,3.107,0,0,0-.426-1.705,2.935,2.935,0,0,0-1.09-1.019,4.47,4.47,0,0,0-1.468-.474,10.8,10.8,0,0,0-1.564-.118,9.3,9.3,0,0,0-1.706.142l-1.611,9.051Z" transform="translate(200.974 -45.174)"/><path class="b" d="M377.44,326.59q-4.881,0-7.179-2.559a10.114,10.114,0,0,1-2.3-7.013,19.925,19.925,0,0,1,.853-5.71,16.448,16.448,0,0,1,2.559-5.165,13.431,13.431,0,0,1,4.289-3.743,12.168,12.168,0,0,1,6.041-1.446q4.929,0,7.227,2.606a10.294,10.294,0,0,1,2.3,7.061,20.561,20.561,0,0,1-.829,5.782,15.87,15.87,0,0,1-2.535,5.117,12.977,12.977,0,0,1-4.313,3.672A12.751,12.751,0,0,1,377.44,326.59Zm.617-5.118a4.306,4.306,0,0,0,3.033-1.137,8.867,8.867,0,0,0,2.013-2.82,14.32,14.32,0,0,0,1.114-3.554,19.572,19.572,0,0,0,.332-3.389q0-4.359-3.554-4.359a4.048,4.048,0,0,0-2.986,1.185,9.477,9.477,0,0,0-1.942,2.891,14.558,14.558,0,0,0-1.067,3.6,21.257,21.257,0,0,0-.307,3.365Q374.692,321.471,378.057,321.472Z" transform="translate(178.516 -53.379)"/><path class="b" d="M414.785,312.285q.521-2.985.782-5.284a34.007,34.007,0,0,0,.261-3.578v-.877a7.073,7.073,0,0,0-.047-.782,17.445,17.445,0,0,1,3.128-.285q.711,0,1.421.072t1.517.213q.094.379.189.9a9.428,9.428,0,0,1,.1,1.564c0,.284-.009.569-.024.853s-.055.632-.118,1.042a10.475,10.475,0,0,1,2.773-3.174,7.729,7.729,0,0,1,1.942-1.067,6.6,6.6,0,0,1,2.346-.4,5.432,5.432,0,0,1,1.706.237,1.574,1.574,0,0,1,.047.379v.426a12.072,12.072,0,0,1-.332,2.749,8.236,8.236,0,0,1-.9,2.369q-.285-.048-.617-.095a6.2,6.2,0,0,0-.852-.047,6.809,6.809,0,0,0-3.2.664,5.573,5.573,0,0,0-2.062,1.871,10.073,10.073,0,0,0-1.28,2.914q-.473,1.707-.853,3.79l-1.753,9.525a22.9,22.9,0,0,1-3.459.284,18.827,18.827,0,0,1-3.27-.284Z" transform="translate(158.089 -53.621)"/><path class="b" d="M455.706,321.424a12.482,12.482,0,0,1-3.554,3.673,8.68,8.68,0,0,1-5.023,1.493,5.639,5.639,0,0,1-4.715-2.014,8.288,8.288,0,0,1-1.587-5.284,22.078,22.078,0,0,1,1.066-6.847,17.654,17.654,0,0,1,3.175-5.852,15.566,15.566,0,0,1,5.26-4.1,16.488,16.488,0,0,1,7.321-1.54,26.069,26.069,0,0,1,7.677,1.09l-4.17,23.457a14.816,14.816,0,0,1-2.345,6.137,13.028,13.028,0,0,1-3.91,3.672,14.439,14.439,0,0,1-4.715,1.8,25.726,25.726,0,0,1-4.81.474,23.136,23.136,0,0,1-3.933-.284,18.477,18.477,0,0,1-2.464-.569q.048-.807.118-1.469a10.788,10.788,0,0,1,.213-1.28,9.09,9.09,0,0,1,.379-1.232,10.562,10.562,0,0,1,.663-1.374,15.873,15.873,0,0,0,2.061.45,17.555,17.555,0,0,0,2.82.213,19.086,19.086,0,0,0,2.772-.213,8.11,8.11,0,0,0,2.8-.971,7.916,7.916,0,0,0,2.464-2.275,11.4,11.4,0,0,0,1.73-4.17Zm2.18-14.832a5.256,5.256,0,0,0-.829-.118q-.4-.023-.781-.024a6.564,6.564,0,0,0-3.886,1.137,9.356,9.356,0,0,0-2.63,2.82,13.291,13.291,0,0,0-1.516,3.649,14.683,14.683,0,0,0-.5,3.578,4.879,4.879,0,0,0,.592,2.63,1.971,1.971,0,0,0,1.778.924q2.275,0,4.218-2.772a19.672,19.672,0,0,0,2.843-7.8Z" transform="translate(145.742 -53.379)"/><path class="c" d="M549.42,244.014l2-4.269s.122-.282.124-.29l.029-.083c-.156-.01-.311-.024-.468-.03l-7.449-.269,6.763-3.029a5.974,5.974,0,0,0-1.037-.624,9.136,9.136,0,0,0-2.07-.673,13.191,13.191,0,0,0-2.937-.249,16.253,16.253,0,0,0-3.035.349,16.444,16.444,0,0,0-2.895.886,13.193,13.193,0,0,0-2.53,1.369l-1.406.975-1.265-.871a5.04,5.04,0,0,0-1.7-.706,9.488,9.488,0,0,0-2.327-.223,13.677,13.677,0,0,0-2.661.325,15.848,15.848,0,0,0-2.768.881,15.079,15.079,0,0,0-1.778.889,13.475,13.475,0,0,0-1.528,1.041,10.755,10.755,0,0,0-.92.827l4.323,1.8-5.462,1.179c-.206.045-.412.1-.618.152-.007.1-.014.2-.015.2l.058,2.788-3.391-1.41-.317-.1c-.384.21-.763.432-1.13.672a15.87,15.87,0,0,0-2.3,1.8,12.214,12.214,0,0,0-1.778,2.079l-.127.192-.122.2s-.1.167-.091.153-.107.188-.112.2a6.5,6.5,0,0,0-.779,2.234,3.57,3.57,0,0,0,.174,1.761,3.005,3.005,0,0,0,1.025,1.325,5.107,5.107,0,0,0,2.166.879l3.25.578-2.179,2.729s-.386.5-.387.5-.355.5-.353.5l-.332.512-.307.517a12.261,12.261,0,0,0-1.177,2.842,9.3,9.3,0,0,0-.334,2.775,6.976,6.976,0,0,0,.556,2.519,6.044,6.044,0,0,0,1.505,2.09,7.264,7.264,0,0,0,3.037,1.591,10.982,10.982,0,0,0,4.094.244,15.1,15.1,0,0,0,3.862-1.007l-.147-.2,1.528-7.064,2.542,3.862c.173.263.363.514.561.76.178-.145.361-.284.534-.436l4.356-3.794-1.513,7a13.419,13.419,0,0,0,3.456,1.286,15.365,15.365,0,0,0,5.181.257,15.99,15.99,0,0,0,5.251-1.556,15.088,15.088,0,0,0,3.078-2.033,13.37,13.37,0,0,0,2.27-2.506,11.608,11.608,0,0,0,1.418-2.75,10.321,10.321,0,0,0,.576-2.794l-.006-1.237s-.166-1.208-.166-1.214l-.32-1.162s-.477-1.125-.478-1.129l-1.341-2.685,3.142-.538a16.222,16.222,0,0,0,4.173-1.3,12.051,12.051,0,0,0,3.121-2.093,7.837,7.837,0,0,0,1.808-2.462,5.272,5.272,0,0,0,.488-2.461l-.016-.218s-.018-.157-.021-.188l-.034-.211-.04-.2a5.794,5.794,0,0,0-1.231-2.441,8.98,8.98,0,0,0-2.379-1.982,12.689,12.689,0,0,0-2.034-.952l-.271.876Z" transform="translate(114.044 -22.707)"/><path class="d" d="M588.625,236.071l-1.564.7c.112.084.218.171.316.261l.079.073a3.169,3.169,0,0,1,.766,1.093,2.468,2.468,0,0,1,.159,1.2s-.04.26-.04.269-.068.259-.068.259-.032.092-.059.171a16.547,16.547,0,0,1,3.3.531c.409.113.8.246,1.188.389l.044-.143.1-.4c0-.006.076-.409.076-.409s.05-.407.05-.407a6.04,6.04,0,0,0-.465-2.928c-.017-.039-.039-.075-.057-.114a22.114,22.114,0,0,0-3.446-.516Z" transform="translate(77.403 -23.434)"/><path class="d" d="M542.521,304.23l.185-.858c-.31-.168-.612-.344-.9-.536a10.745,10.745,0,0,1-2.474-2.236,17.477,17.477,0,0,1-3.773,2.349c-.236.107-.474.2-.711.292l.263.356a15.34,15.34,0,0,0,3.391,3.317,23.112,23.112,0,0,0,3.6-2.346Z" transform="translate(101.501 -53.216)"/><path class="d" d="M518.761,245.968l-.249.823c0,.006-.346,2.05-.346,2.05l.818.266c.487-.266.985-.512,1.492-.727a15.912,15.912,0,0,1,2.172-.749c.008-.105.016-.212.016-.212s.1-.452.1-.452.187-.487.187-.487.269-.51.269-.51a7.091,7.091,0,0,1,.875-1.163c.1-.1.2-.207.308-.31l-1.874-.781-.5.129a20.94,20.94,0,0,0-2.7.906l-.235.428Z" transform="translate(109.197 -26.964)"/><path class="b" d="M538.861,255.794s-.041,8.081,4.759,13.666c0,0,11.13-11.476,12.157-15.753C555.776,253.708,545.236,252.971,538.861,255.794Z" transform="translate(99.646 -31.535)"/></g></svg>