<svg xmlns="http://www.w3.org/2000/svg" width="280px" height="54px" viewBox="0 0 280 54">
    <defs/>
    <g fill="none" fill-rule="evenodd">
        <rect width="280" height="54"/>
        <g fill="#FFF">
            <path d="M28.2605748 30.4752576c0 3.1691829-1.1569052 4.6541757-3.2605748 4.6669063-2.1036696-.0127306-3.261328-1.4977234-3.261328-4.6669063v-8.7669243h-4.0303387v8.5287863c0 5.4517134 2.7220415 8.0772226 7.2916667 8.1378804 4.5696252-.0606578 7.2916667-2.686167 7.2916667-8.1378804v-8.5287863h-4.0310919v8.7669243"/>
            <path d="M49.7926345 25.9937014l-8.9250144-.6521383 7.7533111-4.4958926s-.6876747-2.5082817-2.5809938-5.3842269l-8.3214544 3.3111993L42.7646283 11.3347s-1.7000027-1.95938619-4.6469693-3.7226852l-6.0680653 6.617942 1.3399327-8.9048829S31.0121788 4.30230105 27.5974163 4l-2.6141969 8.61298038-2.6319053-8.6077811s-2.5824695.1173552-5.7898965 1.33695798l1.3583789 8.90265464-6.0820845-6.60605794s-2.27626233 1.23445786-4.63885295 3.73382652L12.2597613 18.799382l-8.32661933-3.2926304s-1.51849204 2.1049661-2.57066388 5.3894262l7.72822429 4.4602403-8.88443276.6543667s-.46410665 2.5602745 0 5.9791732l8.92427658.6580804-7.75700038 4.4906933s.68472332 2.5090244 2.57804236 5.3864551l8.32293012-3.3052572-5.05131025 7.4334863s1.6992649 1.9623572 4.64475575 3.7278845l6.0732303-6.6142282-1.3465733 8.9048829S18.9704927 53.6954707 22.385993 54l2.6200997-8.6129804 2.6252646 8.6114949s2.5824695-.1151269 5.7906344-1.3325015l-1.3524761-8.9041401 6.0776574 6.6097717s2.2770002-1.2322296 4.6418043-3.7301127L37.73324 39.2102738l8.3244058 3.3000579s1.5207056-2.1034805 2.5743531-5.3886834l-7.7592139-4.4847512 8.9228009-.6640225s.4618931-2.5602745-.0029514-5.9791732m-13.2606117 5.362687c2.8562112 1.9497304 4.331908 5.7043541 7.2936316 6.1240103-2.9329475 1.336958-6.1344718-1.345871-9.4503625-1.3206174 1.7339437 3.0029562 1.4447072 7.0316562 3.9319942 8.7028537-3.217757-.0765037-4.9465358-3.8920332-7.9444139-5.3181217.2663633 3.4642066-1.7295167 6.9662938-.2088111 9.5592495-2.8665411-1.4736248-2.7787372-5.6672163-4.8668482-8.260172-1.2521287 3.2354383-4.5599032 5.5216364-4.3053455 8.5208788-1.9479198-2.5803289-.0627171-6.3193547-.8263902-9.5674198-2.5227037 2.3686439-6.4879011 2.9829018-7.5518785 5.7957128-.6434038-3.1745324 2.6665842-5.7214374 3.3793457-8.9806438-3.2944931 1.0331714-7.1313049-.1448371-9.30205494 1.9252195.78802211-3.1418513 4.86758604-3.9900768 6.91511534-6.6164565-3.4140246-.5073013-6.36320472-3.2450941-9.2112996-2.3270496 2.06376201-2.4867419 6.1049578-1.4699111 9.0814383-2.9413076-2.8562112-1.9489876-4.3341216-5.7036112-7.29584514-6.1210392 2.9307339-1.3377008 6.13373384 1.3429 9.45036254 1.3161608-1.7354195-3.0029562-1.4476586-7.0309134-3.9364213-8.70062539 3.2177569.07427545 4.9472736 3.88906219 7.9481031 5.31292249-.2700525-3.463464 1.7250896-6.9670366.2029083-9.55850681 2.8672789 1.47213928 2.7816885 5.66498801 4.8705374 8.25794371 1.2499152-3.23766652 4.5569518-5.5231219 4.3016562-8.52310704 1.9493956 2.57810062.0656685 6.31861194.8308174 9.56741984.0029513.0007427.0073784.002971.0110677.0051993 2.5241794-2.3693867 6.4901146-2.9806736 7.5548299-5.79274185.642666 3.17453245-2.6695356 5.71846635-3.3837728 8.97841555 3.295231-1.0309431 7.1320427.1492936 9.3042685-1.9207629-.7902357 3.1425939-4.8705374 3.9885912-6.9188046 6.6134854 3.4132868.5087868 6.3609912 3.2480651 9.2098239 2.3322489-2.0652377 2.4845136-6.1071713 1.4661973-9.0836518 2.936851"/>
            <path d="M63.598467 23.7916667v7.6709257c0 2.2923427.9144787 3.4590206 2.5369658 3.4590206 1.6633189 0 2.578568-1.1073553 2.578568-3.4590206v-7.6709257H71.875v7.4724513c0 4.1123017-2.1841172 6.0692153-5.8435728 6.0692153-3.5354193 0-5.6147605-1.8580426-5.6147605-6.1087637v-7.4329029h3.1818003"/>
            <path d="M85.4248622 32.149792c-.0580951-1.6271139-.1176426-3.5966214-.1176426-5.5653845h-.0588214c-.4117493 1.7275989-.9607484 3.6569124-1.4698071 5.2438323l-1.6077831 5.2840264h-2.33252l-1.4109858-5.2438324c-.4313564-1.5869198-.88232-3.515489-1.1960337-5.2840263h-.0392143c-.0784284 1.8288284-.1372497 3.9181736-.2352853 5.6055786l-.2352853 5.1433472h-2.7631503l.8423796-13.5416666h3.9787911l1.2940693 4.5203397c.4117494 1.5675672.8227725 3.2549722 1.1176054 4.8426364H81.25c.3718089-1.5668229.8227725-3.3554572 1.2541289-4.861989l1.4109858-4.5009871h3.9018151l.7247369 13.5416666h-2.9207334l-.1960711-5.1835413"/>
            <path d="M99.8432008 36.7688566c-.546268.2728545-1.7746485.5644767-3.3737109.5644767-4.5450078 0-6.8861566-2.8245491-6.8861566-6.5658315 0-4.4818875 3.1988474-6.9758351 7.1780776-6.9758351 1.5412563 0 2.7111081.3118337 3.2385891.5846881l-.6047968 2.3575205c-.6047967-.2526431-1.4437083-.4872402-2.4965027-.4872402-2.3606583 0-4.1938355 1.4227412-4.1938355 4.3454602 0 2.6296531 1.5600432 4.2862696 4.2126225 4.2862696.8974404 0 1.891706-.1948961 2.4777157-.4280495l.4479976 2.3185412"/>
            <path d="M109.43103 23.7916667v7.6709257c0 2.2923427.915249 3.4590206 2.536966 3.4590206 1.664089 0 2.578568-1.1073553 2.578568-3.4590206v-7.6709257h3.161769v7.4724513c0 4.1123017-2.184117 6.0692153-5.843572 6.0692153-3.53542 0-5.614761-1.8580426-5.614761-6.1087637v-7.4329029h3.18103"/>
            <path d="M122.890383 24.8333333v2.7387234H125v2.1908337h-2.109617v3.4627203c0 1.1544817.27096 1.6820791 1.161257 1.6820791.367731 0 .658046-.039135.870226-.07827l.020071 2.2495362c-.387086.1565399-1.08384.2543773-1.916074.2543773-.947643 0-1.741169-.3319225-2.205671-.8211097-.54192-.5674571-.812164-1.4871289-.812164-2.8365607v-3.9127725H118.75v-2.1908337h1.258028v-2.0734288l2.882355-.6652946"/>
            <path d="M127.1656 30.5002902c0-1.5004446-.041133-2.4791296-.082267-3.3543889h2.692718l.103596 1.8747838h.082266c.513407-1.4788332 1.747411-2.1040184 2.714047-2.1040184.287934 0 .431139 0 .657373.041679v2.9792778c-.226234-.041679-.492839-.083358-.842474-.083358-1.151737 0-1.93251.6244134-2.138939 1.6038702-.040372.2083951-.061701.4584692-.061701.7085433v5.1666543H127.1656v-6.8330431"/>
            <path d="M139.865659 31.0020643c0-.7559386-.322658-2.0226464-1.733539-2.0226464-1.290631 0-1.814949 1.1849847-1.895614 2.0226464h3.629153zm-3.608987 2.1232868c.100831 1.2871386 1.35113 1.9000618 2.782176 1.9000618 1.048638 0 1.895615-.1422588 2.721678-.4086155l.403322 2.1036128c-1.007558.4086154-2.237691.6129231-3.568654.6129231-3.34608 0-5.261861-1.9605973-5.261861-5.0857487 0-2.5334156 1.552044-5.3309179 4.979535-5.3309179 3.186246 0 4.395465 2.5122282 4.395465 4.9835948 0 .5312001-.060498 1.0003511-.10083 1.2250896h-6.350831z"/>
            <path d="M152.061506 36.8838564c-.567508.2451692-1.640942.4494769-2.861709.4494769-3.323978 0-5.449797-1.9605973-5.449797-5.1061794 0-2.9208437 2.062675-5.3104872 5.892579-5.3104872.841129 0 1.766448.1430154 2.440754.3881846l-.505924 2.3079205c-.378079-.1634462-.946368-.3064616-1.788276-.3064616-1.683037 0-2.777518 1.1637973-2.75647 2.798259 0 1.8380128 1.262862 2.798259 2.819613 2.798259.757718 0 1.347054-.1225846 1.831151-.3057049l.378079 2.2867331"/>
            <path d="M153.125 22.75h3.071108v5.730607h.041167c.322605-.4314506.726797-.7601748 1.211827-1.0265023.444611-.2465432 1.030688-.39036 1.596557-.39036 1.959581 0 3.454341 1.3765327 3.454341 4.3959257v5.8736629h-3.071108v-5.5243934c0-1.3148969-.443862-2.2188886-1.596557-2.2188886-.807634 0-1.312125.5341769-1.534431 1.0881381-.081587.2062136-.101796.4725411-.101796.698539v5.9566049H153.125V22.75"/>
            <path d="M167.682525 24.8333333v2.7387234h2.109142v2.1908337h-2.109142v3.4627203c0 1.1544817.270991 1.6820791 1.160673 1.6820791.36849 0 .658121-.039135.871043-.07827l.019356 2.2495362c-.38713.1565399-1.083247.2543773-1.916294.2543773-.947751 0-1.740651-.3319225-2.205924-.8211097-.541265-.5674571-.812256-1.4871289-.812256-2.8365607v-3.9127725h-1.257456v-2.1908337h1.257456v-2.0734288l2.883402-.6652946"/>
        </g>
    </g>
</svg>
